<svg width="104" height="94" viewBox="0 0 104 94" fill="none" xmlns="http://www.w3.org/2000/svg">
<path d="M95.955 65.1763L103.959 21.8684C104.024 21.5165 104.011 21.1546 103.921 20.8084C103.83 20.4621 103.665 20.14 103.436 19.865C103.207 19.5899 102.921 19.3685 102.597 19.2166C102.273 19.0647 101.92 18.986 101.562 18.986H78.6262C78.0281 13.7603 75.5297 8.93747 71.6068 5.43621C67.684 1.93495 62.611 0 57.3543 0C52.0975 0 47.0245 1.93495 43.1017 5.43621C39.1789 8.93747 36.6804 13.7603 36.0823 18.986H20.8796L19.8971 13.6709C19.7935 13.1105 19.4971 12.6041 19.0593 12.2396C18.6214 11.8751 18.0698 11.6755 17.5002 11.6755H2.4375C1.79103 11.6755 1.17105 11.9325 0.713927 12.3898C0.256807 12.8472 0 13.4676 0 14.1144C0 14.7613 0.256807 15.3816 0.713927 15.839C1.17105 16.2964 1.79103 16.5533 2.4375 16.5533H15.4722L28.0743 84.7371C28.1779 85.2975 28.4743 85.8039 28.9122 86.1684C29.35 86.533 29.9016 86.7325 30.4712 86.7325H39.5121C40.052 88.8133 41.267 90.6558 42.9665 91.9711C44.6659 93.2864 46.7536 94 48.9021 94C51.0506 94 53.1383 93.2864 54.8378 91.9711C56.5372 90.6558 57.7522 88.8133 58.2922 86.7325H71.4547C71.9947 88.8132 73.2098 90.6557 74.9092 91.971C76.6087 93.2862 78.6964 93.9998 80.8449 93.9998C82.9933 93.9998 85.081 93.2862 86.7805 91.971C88.4799 90.6557 89.695 88.8132 90.235 86.7325H97.1413C97.7877 86.7325 98.4077 86.4756 98.8648 86.0182C99.322 85.5608 99.5788 84.9405 99.5788 84.2936C99.5788 83.6468 99.322 83.0264 98.8648 82.569C98.4077 82.1116 97.7877 81.8547 97.1413 81.8547H90.235C89.695 79.774 88.4799 77.9315 86.7805 76.6163C85.081 75.301 82.9933 74.5874 80.8449 74.5874C78.6964 74.5874 76.6087 75.301 74.9092 76.6163C73.2098 77.9315 71.9947 79.774 71.4547 81.8547H58.2922C57.7522 79.7739 56.5372 77.9314 54.8378 76.6161C53.1383 75.3008 51.0506 74.5872 48.9021 74.5872C46.7536 74.5872 44.6659 75.3008 42.9665 76.6161C41.267 77.9314 40.052 79.7739 39.5121 81.8547H32.5L29.7862 67.1718H93.5581C94.1277 67.1718 94.6793 66.9722 95.1172 66.6077C95.555 66.2432 95.8515 65.7367 95.955 65.1763ZM80.8452 79.4643C81.7996 79.4643 82.7326 79.7474 83.5262 80.278C84.3198 80.8085 84.9383 81.5626 85.3036 82.4449C85.6689 83.3272 85.7645 84.298 85.5783 85.2347C85.3921 86.1713 84.9325 87.0317 84.2577 87.707C83.5828 88.3822 82.723 88.8421 81.7869 89.0285C80.8508 89.2148 79.8805 89.1192 78.9987 88.7537C78.1169 88.3883 77.3633 87.7694 76.833 86.9754C76.3027 86.1813 76.0197 85.2478 76.0197 84.2928C76.0214 83.0128 76.5304 81.7858 77.435 80.8808C78.3396 79.9758 79.566 79.4667 80.8452 79.4652V79.4643ZM48.9021 79.4643C49.8566 79.4643 50.7895 79.7475 51.5831 80.2781C52.3767 80.8086 52.9952 81.5627 53.3604 82.445C53.7257 83.3273 53.8213 84.2982 53.6351 85.2348C53.4489 86.1714 52.9893 87.0318 52.3144 87.707C51.6395 88.3823 50.7797 88.8422 49.8436 89.0285C48.9075 89.2148 47.9372 89.1192 47.0554 88.7537C46.1737 88.3883 45.42 87.7694 44.8898 86.9753C44.3595 86.1813 44.0765 85.2478 44.0765 84.2928C44.0782 83.0128 44.5871 81.7857 45.4918 80.8807C46.3964 79.9757 47.6229 79.4666 48.9021 79.4652V79.4643ZM57.3544 4.87843C60.625 4.87839 63.8223 5.84879 66.5418 7.66691C69.2613 9.48504 71.3809 12.0692 72.6325 15.0927C73.8842 18.1162 74.2117 21.4431 73.5737 24.6528C72.9356 27.8625 71.3606 30.8109 69.0479 33.1249C66.7352 35.439 63.7886 37.0149 60.5808 37.6534C57.373 38.2919 54.048 37.9642 51.0263 36.7119C48.0045 35.4595 45.4218 33.3387 43.6047 30.6176C41.7876 27.8966 40.8178 24.6975 40.8178 21.4249C40.8225 17.038 42.5662 12.8321 45.6664 9.73008C48.7666 6.62804 52.97 4.88322 57.3544 4.87843V4.87843ZM28.8844 62.2939L21.7809 23.8638H36.0823C36.6804 29.0894 39.1789 33.9123 43.1017 37.4136C47.0245 40.9148 52.0975 42.8498 57.3543 42.8498C62.611 42.8498 67.684 40.9148 71.6068 37.4136C75.5297 33.9123 78.0281 29.0894 78.6262 23.8638H98.6328L91.5299 62.2939H28.8844ZM48.7268 25.0052C48.2759 24.5466 48.0243 23.9282 48.0269 23.2848C48.0295 22.6414 48.2861 22.0251 48.7408 21.5702C49.1955 21.1152 49.8114 20.8585 50.4545 20.8559C51.0975 20.8532 51.7155 21.105 52.1739 21.5562L54.9083 24.292L54.9252 12.6574C54.9261 12.0111 55.1833 11.3917 55.6403 10.935C56.0974 10.4784 56.7168 10.2219 57.3627 10.2219H57.3664C58.0128 10.2229 58.6323 10.4808 59.0887 10.9389C59.5451 11.397 59.801 12.0177 59.8 12.6645L59.7831 24.3091L62.5345 21.5562C62.992 21.1008 63.6113 20.8456 64.2566 20.8465C64.9019 20.8473 65.5206 21.1042 65.9769 21.5608C66.4332 22.0173 66.69 22.6363 66.6909 23.282C66.6918 23.9277 66.4367 24.5474 65.9817 25.0052L59.0779 31.9133C58.8515 32.1398 58.5828 32.3194 58.2871 32.442C57.9913 32.5646 57.6744 32.6277 57.3543 32.6277C57.0342 32.6277 56.7172 32.5646 56.4214 32.442C56.1257 32.3194 55.857 32.1398 55.6306 31.9133L48.7268 25.0052Z" fill="#FCCA0B"/>
</svg>
