<svg width="122" height="123" viewBox="0 0 122 123" fill="none" xmlns="http://www.w3.org/2000/svg">
<path d="M48.5471 25.4049L47.0674 34.0317C46.7756 35.7329 47.4618 37.42 48.8583 38.4346C50.2547 39.4492 52.0712 39.5805 53.599 38.7773L61.3464 34.7042L69.0938 38.7773C69.7584 39.1267 70.4773 39.2993 71.1928 39.2992C72.1221 39.2992 73.0456 39.0079 73.8346 38.4347C75.231 37.4201 75.9172 35.733 75.6254 34.0318L74.1457 25.405L80.4135 19.2954C81.6495 18.0906 82.086 16.3224 81.5526 14.6808C81.0192 13.0392 79.6268 11.8652 77.9186 11.617L69.2568 10.3584L65.3831 2.50941C64.6193 0.961505 63.0725 0 61.3465 0C59.6204 0 58.0736 0.961506 57.3097 2.50936L53.436 10.3583L44.7741 11.6169C43.066 11.8652 41.6736 13.0391 41.1402 14.6807C40.6068 16.3223 41.0433 18.0905 42.2793 19.2954L48.5471 25.4049ZM44.7867 15.8655C44.8346 15.7182 44.9683 15.4632 45.3255 15.4112L54.9847 14.0077C55.6091 13.9169 56.1489 13.5247 56.4282 12.9589L60.7479 4.2062C60.9077 3.88245 61.1915 3.83411 61.3465 3.83411C61.5015 3.83411 61.7853 3.88245 61.945 4.2062L66.2648 12.9589C66.544 13.5247 67.0838 13.9169 67.7082 14.0076L77.3674 15.4112C77.7247 15.4631 77.8584 15.7181 77.9063 15.8655C77.9542 16.0129 77.9959 16.2978 77.7374 16.5498L70.7479 23.3628C70.2961 23.8032 70.0899 24.4378 70.1966 25.0597L71.8466 34.6799C71.9076 35.0357 71.7064 35.2416 71.581 35.3327C71.4556 35.4239 71.1975 35.5515 70.8781 35.3836L62.2386 30.8415C61.9594 30.6947 61.653 30.6213 61.3465 30.6213C61.0401 30.6213 60.7337 30.6947 60.4545 30.8415L51.815 35.3836C51.4955 35.5516 51.2375 35.4239 51.1121 35.3328C50.9867 35.2417 50.7855 35.0358 50.8465 34.6799L52.4965 25.0598C52.6032 24.4378 52.397 23.8033 51.9452 23.3629L44.9557 16.5498C44.6971 16.2978 44.7388 16.0129 44.7867 15.8655Z" fill="#FCCA0B"/>
<path d="M24.5838 59.9122L23.1041 68.5391C22.8123 70.2403 23.4986 71.9274 24.895 72.9419C25.6841 73.5153 26.6071 73.8066 27.5367 73.8065C28.252 73.8064 28.9714 73.6339 29.6358 73.2846L37.3831 69.2115L45.1305 73.2846C45.795 73.6339 46.5141 73.8065 47.2295 73.8065C48.159 73.8065 49.0822 73.5152 49.8713 72.9419C51.2677 71.9274 51.9539 70.2403 51.6621 68.5391L50.1825 59.9122L56.4502 53.8027C57.6862 52.5979 58.1227 50.8297 57.5893 49.1881C57.056 47.5465 55.6635 46.3725 53.9553 46.1243L45.2935 44.8657L41.4199 37.0167C40.6559 35.4688 39.1091 34.5073 37.3831 34.5073C35.657 34.5073 34.1102 35.4688 33.3463 37.0167L29.4726 44.8657L20.8108 46.1243C19.1027 46.3725 17.7102 47.5465 17.1768 49.1881C16.6434 50.8296 17.0799 52.5979 18.3159 53.8027L24.5838 59.9122ZM20.8234 50.3729C20.8713 50.2255 21.005 49.9705 21.3623 49.9186L31.0214 48.515C31.6459 48.4243 32.1857 48.0321 32.4649 47.4663L36.7846 38.7135C36.9444 38.3898 37.2283 38.3414 37.3832 38.3414C37.5382 38.3414 37.822 38.3898 37.9818 38.7135L42.3015 47.4663C42.5808 48.0321 43.1206 48.4243 43.745 48.515L53.4042 49.9186C53.7615 49.9705 53.8951 50.2255 53.9431 50.3729C53.9909 50.5203 54.0327 50.8051 53.7741 51.0571L46.7847 57.8701C46.3329 58.3106 46.1267 58.9451 46.2334 59.567L47.8833 69.1872C47.9443 69.543 47.7431 69.749 47.6178 69.8401C47.4924 69.9312 47.2344 70.0588 46.9149 69.8909L38.2754 65.3488C37.9962 65.202 37.6898 65.1286 37.3834 65.1286C37.0769 65.1286 36.7705 65.202 36.4913 65.3488L27.8518 69.8909C27.5323 70.0589 27.2743 69.9312 27.1489 69.8401C27.0235 69.749 26.8223 69.543 26.8833 69.1872L28.5333 59.567C28.64 58.9451 28.4338 58.3106 27.982 57.8701L20.9925 51.0571C20.7338 50.8051 20.7755 50.5203 20.8234 50.3729Z" fill="#FCCA0B"/>
<path d="M77.3994 44.8657L68.7375 46.1243C67.0294 46.3725 65.6369 47.5465 65.1036 49.1881C64.5702 50.8296 65.0067 52.5979 66.2427 53.8027L72.5105 59.9122L71.0308 68.5391C70.739 70.2403 71.4253 71.9273 72.8216 72.9419C73.6108 73.5153 74.5338 73.8066 75.4634 73.8065C76.1787 73.8064 76.8981 73.6339 77.5624 73.2846L85.3098 69.2115L93.0571 73.2846C93.7216 73.6339 94.4408 73.8065 95.1562 73.8065C96.0856 73.8065 97.0088 73.5152 97.7979 72.9419C99.1944 71.9274 99.8806 70.2403 99.5888 68.5391L98.1091 59.9122L104.377 53.8027C105.613 52.5979 106.049 50.8297 105.516 49.1881C104.983 47.5465 103.59 46.3725 101.882 46.1243L93.2201 44.8657L89.3465 37.0167C88.5826 35.4688 87.0358 34.5073 85.3097 34.5073C83.5837 34.5073 82.0369 35.4688 81.273 37.0167L77.3994 44.8657ZM84.7113 38.7136C84.8711 38.3898 85.155 38.3415 85.3099 38.3415C85.4648 38.3415 85.7487 38.3898 85.9084 38.7136L90.2281 47.4663C90.5074 48.0321 91.0471 48.4243 91.6716 48.515L101.331 49.9186C101.688 49.9705 101.822 50.2255 101.87 50.3729C101.918 50.5203 101.959 50.8051 101.701 51.0571L94.7113 57.8702C94.2594 58.3106 94.0532 58.9452 94.1599 59.5671L95.8099 69.1872C95.871 69.5431 95.6698 69.749 95.5444 69.8401C95.419 69.9312 95.1608 70.0589 94.8415 69.8909L86.202 65.3488C85.6436 65.0553 84.9763 65.0553 84.4178 65.3488L75.7784 69.8909C75.4588 70.0589 75.2009 69.9312 75.0754 69.8401C74.9501 69.749 74.7489 69.5431 74.8099 69.1872L76.4599 59.5671C76.5666 58.9452 76.3604 58.3106 75.9086 57.8702L68.9191 51.0571C68.6606 50.8051 68.7023 50.5203 68.7502 50.3729C68.7981 50.2255 68.9318 49.9705 69.289 49.9186L78.9482 48.515C79.5727 48.4243 80.1124 48.0321 80.3917 47.4663L84.7113 38.7136Z" fill="#FCCA0B"/>
<path d="M121.173 57.5944C120.424 56.8458 119.21 56.8458 118.462 57.5944L94.5805 81.4757H27.1539L3.27265 57.5944C2.52399 56.8458 1.31016 56.8458 0.561498 57.5944C-0.187166 58.3431 -0.187166 59.5569 0.561498 60.3056L24.4427 84.1868V120.776C24.4427 121.835 25.301 122.693 26.3598 122.693H95.3745C96.4333 122.693 97.2916 121.835 97.2916 120.776V84.1868L121.173 60.3056C121.922 59.5569 121.922 58.3431 121.173 57.5944ZM28.2769 85.3098H58.9501V118.859H28.2769V85.3098ZM93.4575 118.859H62.7842V85.3098H93.4575V118.859Z" fill="#FCCA0B"/>
</svg>
