<svg width="47" height="47" viewBox="0 0 47 47" fill="none" xmlns="http://www.w3.org/2000/svg">
<path d="M10.3437 0C4.64023 0 0 4.64034 0 10.3437C0 16.0472 4.64034 20.6875 10.3437 20.6875C16.0471 20.6875 20.6875 16.0471 20.6875 10.3437C20.6875 4.64034 16.0472 0 10.3437 0ZM10.3437 18.9635C5.59067 18.9635 1.72399 15.0968 1.72399 10.3437C1.72399 5.59067 5.59067 1.72399 10.3437 1.72399C15.0968 1.72399 18.9635 5.59067 18.9635 10.3437C18.9635 15.0968 15.0968 18.9635 10.3437 18.9635Z" fill="#FCCA0B"/>
<path d="M10.3437 3.44803C6.5414 3.44803 3.44788 6.54155 3.44788 10.3439C3.44788 14.1462 6.5414 17.2397 10.3437 17.2397C14.1461 17.2397 17.2396 14.1462 17.2396 10.3439C17.2396 6.54155 14.1461 3.44803 10.3437 3.44803ZM10.3437 15.5158C7.49183 15.5158 5.17186 13.1958 5.17186 10.3439C5.17186 7.49198 7.49183 5.17202 10.3437 5.17202C13.1956 5.17202 15.5156 7.49198 15.5156 10.3439C15.5156 13.1958 13.1956 15.5158 10.3437 15.5158Z" fill="#FCCA0B"/>
<path d="M36.4805 0C30.7771 0 26.1367 4.64034 26.1367 10.3437C26.1367 16.0471 30.7771 20.6875 36.4805 20.6875C42.1839 20.6875 46.8242 16.0471 46.8242 10.3437C46.8242 4.64034 42.1839 0 36.4805 0ZM36.4805 18.9635C31.7274 18.9635 27.8607 15.0968 27.8607 10.3437C27.8607 5.59067 31.7274 1.72399 36.4805 1.72399C41.2335 1.72399 45.1002 5.59067 45.1002 10.3437C45.1002 15.0968 41.2335 18.9635 36.4805 18.9635Z" fill="#FCCA0B"/>
<path d="M41.3998 5.42438C41.0631 5.08771 40.5176 5.08771 40.1809 5.42438L36.4804 9.12479L32.78 5.42438C32.4434 5.08771 31.8979 5.08771 31.5611 5.42438C31.2244 5.76106 31.2244 6.30653 31.5611 6.64331L35.2615 10.3437L31.5611 14.0441C31.2244 14.3808 31.2244 14.9263 31.5611 15.263C31.7295 15.4314 31.95 15.5156 32.1705 15.5156C32.391 15.5156 32.6117 15.4314 32.7799 15.263L36.4804 11.5626L40.1809 15.263C40.3492 15.4314 40.5698 15.5156 40.7903 15.5156C41.0108 15.5156 41.2314 15.4314 41.3997 15.263C41.7364 14.9264 41.7364 14.3809 41.3997 14.0441L37.6994 10.3437L41.3998 6.64331C41.7365 6.30653 41.7365 5.76106 41.3998 5.42438Z" fill="#FCCA0B"/>
<path d="M36.7826 46.3186C42.4164 46.3186 47 41.7349 47 36.1012C47 30.4674 42.4164 25.8838 36.7826 25.8838C31.1488 25.8838 26.5652 30.4674 26.5652 36.1012C26.5652 41.7349 31.1488 46.3186 36.7826 46.3186ZM36.7826 27.5867C41.4776 27.5867 45.297 31.4062 45.297 36.1012C45.297 40.7962 41.4776 44.6156 36.7826 44.6156C32.0876 44.6156 28.2681 40.7962 28.2681 36.1012C28.2681 31.4062 32.0876 27.5867 36.7826 27.5867Z" fill="#FCCA0B"/>
<path d="M31.674 39.5073H41.8914C41.8976 39.5069 41.9025 39.5069 41.9084 39.5073C42.3787 39.5073 42.7598 39.126 42.7598 38.6559C42.7598 38.4388 42.6788 38.241 42.5453 38.0904L37.5126 29.7027C37.205 29.1896 36.3602 29.1896 36.0526 29.7027L30.9439 38.2176C30.7859 38.4808 30.7817 38.8084 30.9331 39.0753C31.0841 39.3422 31.3671 39.5073 31.674 39.5073ZM36.7827 31.796L40.3876 37.8044H33.1777L36.7827 31.796Z" fill="#FCCA0B"/>
<path d="M21.1159 36.1012C21.1159 30.4674 16.5323 25.8838 10.8985 25.8838C5.26481 25.8838 0.681152 30.4674 0.681152 36.1012C0.681152 41.735 5.26481 46.3186 10.8985 46.3186C16.5323 46.3186 21.1159 41.735 21.1159 36.1012ZM10.8985 44.6156C6.20353 44.6156 2.38408 40.7962 2.38408 36.1012C2.38408 31.4062 6.20353 27.5867 10.8985 27.5867C15.5936 27.5867 19.413 31.4062 19.413 36.1012C19.413 40.7962 15.5936 44.6156 10.8985 44.6156Z" fill="#FCCA0B"/>
<path d="M15.1558 30.9925H6.64126C6.171 30.9925 5.78984 31.3737 5.78984 31.8439V40.3584C5.78984 40.8286 6.1711 41.2098 6.64126 41.2098H15.1557C15.626 41.2098 16.0071 40.8285 16.0071 40.3584V31.8439C16.0072 31.3737 15.626 30.9925 15.1558 30.9925ZM14.3043 39.507H7.49277V32.6953H14.3044V39.507H14.3043Z" fill="#FCCA0B"/>
</svg>
