<svg width="90" height="90" viewBox="0 0 90 90" fill="none" xmlns="http://www.w3.org/2000/svg">
<g clip-path="url(#clip0_1426_1080)">
<path d="M82.0898 21.0938H71.36C73.019 18.8888 74.0039 16.1492 74.0039 13.1836C74.0039 5.91416 68.0897 0 60.8203 0C56.4414 0 53.2125 1.56885 50.6586 4.93717C48.522 7.75529 46.9596 11.69 45 16.6614C43.0404 11.6898 41.478 7.75529 39.3414 4.93717C36.7875 1.56885 33.5586 0 29.1797 0C21.9103 0 15.9961 5.91416 15.9961 13.1836C15.9961 16.1492 16.981 18.8888 18.64 21.0938H7.91016C3.5485 21.0938 0 24.6422 0 29.0039V34.2773C0 37.7147 2.20447 40.6455 5.27344 41.734V82.0898C5.27344 86.4515 8.82193 90 13.1836 90H76.8164C81.1781 90 84.7266 86.4515 84.7266 82.0898V41.734C87.7955 40.6455 90 37.7147 90 34.2773V29.0039C90 24.6422 86.4515 21.0938 82.0898 21.0938ZM49.84 18.7629C53.8792 8.51519 55.4149 5.27344 60.8203 5.27344C65.182 5.27344 68.7305 8.82193 68.7305 13.1836C68.7305 17.5453 65.182 21.0938 60.8203 21.0938H48.9176C49.2407 20.2825 49.5489 19.5015 49.84 18.7629ZM29.1797 5.27344C34.5851 5.27344 36.1208 8.51519 40.16 18.7629C40.4511 19.5015 40.7593 20.2825 41.0824 21.0938H29.1797C24.818 21.0938 21.2695 17.5453 21.2695 13.1836C21.2695 8.82193 24.818 5.27344 29.1797 5.27344ZM34.4531 84.7266H13.1836C11.7297 84.7266 10.5469 83.5437 10.5469 82.0898V42.1875H34.4531V84.7266ZM34.4531 36.9141H7.91016C6.45627 36.9141 5.27344 35.7312 5.27344 34.2773V29.0039C5.27344 27.55 6.45627 26.3672 7.91016 26.3672H34.4531V36.9141ZM50.2734 84.7266H39.7266V26.3672C40.279 26.3672 47.243 26.3672 50.2734 26.3672V84.7266ZM79.4531 82.0898C79.4531 83.5437 78.2703 84.7266 76.8164 84.7266H55.5469V42.1875H79.4531V82.0898ZM84.7266 34.2773C84.7266 35.7312 83.5437 36.9141 82.0898 36.9141H55.5469V26.3672H82.0898C83.5437 26.3672 84.7266 27.55 84.7266 29.0039V34.2773Z" fill="#FCCA0B"/>
</g>
<defs>
<clipPath id="clip0_1426_1080">
<rect width="90" height="90" fill="white"/>
</clipPath>
</defs>
</svg>
