<svg width="141" height="97" viewBox="0 0 141 97" fill="none" xmlns="http://www.w3.org/2000/svg">
<path d="M125.645 76.08V10.0191C125.645 9.47022 125.427 8.94381 125.038 8.55569C124.65 8.16757 124.124 7.94952 123.575 7.94952H17.0214C16.4725 7.94952 15.9461 8.16757 15.5579 8.55569C15.1698 8.94381 14.9518 9.47022 14.9518 10.0191V76.08C14.9518 76.6289 15.1698 77.1553 15.5579 77.5434C15.9461 77.9315 16.4725 78.1496 17.0214 78.1496H123.575C124.124 78.1496 124.65 77.9315 125.038 77.5434C125.427 77.1553 125.645 76.6289 125.645 76.08ZM121.505 74.0104H19.0909V12.084H121.505V74.0104Z" fill="#FCCA0B"/>
<path d="M138.527 81.9612H133.598V7.39371C133.596 5.43336 132.816 3.55383 131.43 2.16764C130.044 0.781461 128.164 0.00187864 126.204 0H14.3924C12.4321 0.00187864 10.5525 0.781461 9.16636 2.16764C7.78018 3.55383 7.0006 5.43336 6.99872 7.39371V81.9612H2.06958C1.52079 81.9615 0.994564 82.1796 0.606511 82.5677C0.218458 82.9557 0.000313326 83.482 0 84.0307V89.1527C0.00219111 91.1123 0.781623 92.991 2.1673 94.3767C3.55297 95.7624 5.43171 96.5418 7.39135 96.544H133.205C135.165 96.5421 137.044 95.7628 138.429 94.3771C139.815 92.9913 140.595 91.1124 140.596 89.1527V84.0307C140.596 83.4819 140.378 82.9555 139.99 82.5673C139.602 82.1792 139.076 81.9612 138.527 81.9612V81.9612ZM11.1379 7.39371C11.1385 6.53074 11.4816 5.7033 12.0918 5.09308C12.702 4.48287 13.5295 4.13978 14.3924 4.13915H126.204C127.067 4.13978 127.894 4.48287 128.505 5.09308C129.115 5.7033 129.458 6.53074 129.459 7.39371V81.9612H85.8425C85.2936 81.9612 84.7672 82.1792 84.3791 82.5673C83.991 82.9555 83.7729 83.4819 83.7729 84.0307V85.1365H56.8235V84.0307C56.8232 83.482 56.605 82.9557 56.217 82.5677C55.8289 82.1796 55.3027 81.9615 54.7539 81.9612H11.1379V7.39371ZM136.457 89.1527C136.456 90.0149 136.113 90.8416 135.504 91.4513C134.894 92.061 134.067 92.4039 133.205 92.4048H7.39135C6.5292 92.4036 5.70271 92.0606 5.09308 91.4509C4.48345 90.8413 4.14041 90.0148 4.13915 89.1527V86.1003H52.6843V87.2061C52.6843 87.755 52.9024 88.2814 53.2905 88.6695C53.6786 89.0576 54.205 89.2756 54.7539 89.2756H85.8425C86.3914 89.2756 86.9178 89.0576 87.3059 88.6695C87.694 88.2814 87.9121 87.755 87.9121 87.2061V86.1003H136.457V89.1527Z" fill="#FCCA0B"/>
</svg>
