<svg width="67" height="72" viewBox="0 0 67 72" fill="none" xmlns="http://www.w3.org/2000/svg">
<path d="M57.568 50.3739L60.1575 63.6965L43.0285 67.0261L40.4389 53.7035" stroke="#FCCA0B" stroke-width="2.90827" stroke-miterlimit="10"/>
<path d="M60.4228 49.8189L37.5841 54.2583L46.4138 38.716L60.4228 49.8189Z" stroke="#FCCA0B" stroke-width="2.90827" stroke-miterlimit="10" stroke-dasharray="47.7 2.91"/>
<path d="M48.7385 65.9161L47.7397 60.7773C47.4332 59.2007 48.4629 57.6742 50.0395 57.3675C51.6163 57.0612 53.143 58.0908 53.4493 59.6675L54.4482 64.8062" stroke="#FCCA0B" stroke-width="2.90827" stroke-miterlimit="10"/>
<path d="M26.6781 15.5501L23.9207 7.92795C23.234 6.02984 24.216 3.9343 26.1141 3.24758C28.0122 2.56086 30.1078 3.54289 30.7946 5.44114L31.0557 6.16282L31.7764 5.89891C33.6716 5.20492 35.771 6.17873 36.4651 8.07437C37.1592 9.96974 36.1853 12.069 34.2896 12.7631L26.6781 15.5501Z" stroke="#FCCA0B" stroke-width="2.90827" stroke-miterlimit="10"/>
<path d="M61.111 26.355L55.6221 29.0512L54.742 35.0798L50.4696 30.7174L44.4369 31.7473L47.285 26.355L44.4369 20.9627L50.4696 21.9926L54.742 17.6302L55.6221 23.6588L61.111 26.355Z" stroke="#FCCA0B" stroke-width="2.90827" stroke-miterlimit="10"/>
<path d="M1.99992 40.5107H29.1438V32.7553H1.99992V40.5107Z" stroke="#FCCA0B" stroke-width="2.90827" stroke-miterlimit="10"/>
<path d="M25.2659 32.7554L21.3882 25H9.75508L5.87738 32.7554" stroke="#FCCA0B" stroke-width="2.90827" stroke-miterlimit="10"/>
<path d="M20.4191 40.5109V44.5824C20.4191 46.1886 21.7212 47.4907 23.3273 47.4907C24.9335 47.4907 26.2356 46.1886 26.2356 44.5824V40.5109" stroke="#FCCA0B" stroke-width="2.90827" stroke-miterlimit="10"/>
<path d="M10.7249 40.5109V44.5824C10.7249 46.1886 9.42272 47.4907 7.81658 47.4907C6.21044 47.4907 4.90831 46.1886 4.90831 44.5824V40.5109" stroke="#FCCA0B" stroke-width="2.90827" stroke-miterlimit="10"/>
</svg>
