<svg width="82" height="14" viewBox="0 0 82 14" fill="none" xmlns="http://www.w3.org/2000/svg">
<path d="M41.165 12.3581V1.59174H47.963V4.09247H43.9996V12.3581H41.165Z" fill="white"/>
<path d="M56.5 12.3581V8.14104H52.2902V12.3581H49.4561V1.59174H52.2902V5.61027H56.5V1.59174H59.335V12.3581H56.5Z" fill="white"/>
<path d="M72.4717 1.59174V4.09204H75.7834V12.3581H78.6184V4.09204H81.9451V1.59174H72.4717Z" fill="white"/>
<path d="M68.3062 12.3561V6.22113L63.7947 12.3561H61.4238V1.59177H64.2592V7.66225L68.6943 1.59177H71.142V12.3561H68.3062Z" fill="white"/>
<path d="M24.8695 12.3581V5.95978L22.04 9.3395L19.2101 5.95978V12.3581H16.376V1.59177H19.1719L22.04 5.2943L24.9076 1.59177H27.704V12.3581H24.8695Z" fill="white"/>
<path d="M37.1912 12.3577L36.6024 10.8483H32.1919L31.6031 12.3577H28.749L33.109 1.59174H35.7302L40.0903 12.3577H37.1912ZM33.0802 8.5721H35.7149L34.3974 5.19452L33.0802 8.5721Z" fill="white"/>
<path d="M0 4.43601C0 3.38745 0.410116 2.40014 1.15544 1.65516C1.90013 0.910116 2.88745 0.5 3.93601 0.5H13.0241V2.50018H3.93601C3.42247 2.50018 2.93716 2.70234 2.56992 3.06923C2.20234 3.43716 2.00018 3.92247 2.00018 4.43601L1.98823 7.79351C1.89537 8.68513 1.22317 9.40463 0.353915 9.5374L0 9.59146V4.43601Z" fill="white"/>
<path d="M0 13.5V11.4998H9.08807C9.60196 11.4998 10.0869 11.2973 10.4538 10.9301C10.8211 10.5632 11.0236 10.0782 11.0236 9.56432L11.0259 6.37736C11.0259 5.4285 11.7328 4.60523 12.6704 4.46266L13.0241 4.40887V9.56432C13.0241 10.6129 12.614 11.6002 11.8686 12.3449C11.1239 13.0899 10.1366 13.5 9.08807 13.5H0Z" fill="white"/>
<path d="M7.69422 9.60072V7.01512L6.50951 8.4303L5.32479 7.01512V9.60072H3.75586V4.51196H5.24243L6.50951 6.14828L7.77658 4.51196H9.26315V9.60072H7.69422Z" fill="white"/>
</svg>
