<svg width="183" height="29" viewBox="0 0 183 29" fill="none" xmlns="http://www.w3.org/2000/svg">
<path d="M91.8308 26.4527V2.43541H106.995V8.01398H98.154V26.4527H91.8308Z" fill="#F13E33"/>
<path d="M126.04 26.4527V17.0454H116.649V26.4527H110.326V2.43541H116.649V11.3998H126.04V2.43541H132.364V26.4527H126.04Z" fill="#F13E33"/>
<path d="M161.667 2.43541V8.01302H169.055V26.4527H175.379V8.01302H182.8V2.43541H161.667Z" fill="#F13E33"/>
<path d="M152.374 26.4482V12.7625L142.31 26.4482H137.021V2.43549H143.347V15.9773L153.24 2.43549H158.701V26.4482H152.374Z" fill="#F13E33"/>
<path d="M55.479 26.4528V12.1795L49.1671 19.7189L42.8543 12.1795V26.4528H36.532V2.4355H42.769L49.1671 10.695L55.5641 2.4355H61.8023V26.4528H55.479Z" fill="#F13E33"/>
<path d="M82.9667 26.4517L81.6532 23.0847H71.8146L70.5011 26.4517H64.1343L73.8604 2.43541H79.7076L89.4339 26.4517H82.9667ZM73.7961 18.007H79.6736L76.7345 10.4724L73.7961 18.007Z" fill="#F13E33"/>
<path d="M0 8.78033C0 6.44124 0.914874 4.23876 2.57751 2.5769C4.23876 0.914874 6.44124 0 8.78033 0H29.0537V4.46194H8.78033C7.63473 4.46194 6.55213 4.9129 5.7329 5.73136C4.9129 6.55213 4.46194 7.63473 4.46194 8.78033L4.43529 16.2701C4.22814 18.2591 2.7286 19.8642 0.789502 20.1603L0 20.2809V8.78033Z" fill="#F13E33"/>
<path d="M0 29V24.5381H20.2734C21.4198 24.5381 22.5016 24.0863 23.32 23.2671C24.1393 22.4488 24.591 21.3668 24.591 20.2204L24.5963 13.1111C24.5963 10.9944 26.1733 9.15785 28.2648 8.8398L29.0537 8.71982V20.2204C29.0537 22.5597 28.1388 24.762 26.4762 26.4233C24.815 28.0853 22.6125 29 20.2734 29H0Z" fill="#F13E33"/>
<path d="M17.163 20.3016V14.5337L14.5202 17.6907L11.8774 14.5337V20.3016H8.37744V8.94977H11.6936L14.5202 12.6L17.3468 8.94977H20.6629V20.3016H17.163Z" fill="#F13E33"/>
</svg>
