<svg width="27" height="18" viewBox="0 0 27 18" fill="none" xmlns="http://www.w3.org/2000/svg">
  <path d="M17.3555 9.13416L26.182 14.7142V3.31853L17.3555 9.13416Z" fill="white"/>
  <path d="M0 3.31853V14.7142L8.82654 9.13416L0 3.31853Z" fill="white"/>
  <path d="M24.5452 0H1.6361C0.819555 0 0.171555 0.608727 0.0488281 1.39255L13.0906 9.98509L26.1325 1.39255C26.0097 0.608727 25.3617 0 24.5452 0Z" fill="white"/>
  <path d="M15.8567 10.1226L13.5413 11.6477C13.4038 11.7377 13.2484 11.7818 13.0913 11.7818C12.9342 11.7818 12.7787 11.7377 12.6413 11.6477L10.3258 10.1209L0.0527344 16.6189C0.178734 17.3962 0.823462 18 1.63673 18H24.5458C25.3591 18 26.0038 17.3962 26.1298 16.6189L15.8567 10.1226Z" fill="white"/>
</svg>
