<svg width="20" height="20" viewBox="0 0 20 20" fill="none" xmlns="http://www.w3.org/2000/svg">
<path d="M19.4346 14.678L16.6436 11.8869C15.6468 10.8901 13.9522 11.2889 13.5535 12.5847C13.2544 13.4818 12.2576 13.9802 11.3605 13.7808C9.36689 13.2824 6.67552 10.6907 6.17711 8.59745C5.87807 7.70029 6.47615 6.70348 7.37328 6.40448C8.66913 6.00575 9.06785 4.31119 8.07104 3.31438L5.27999 0.523323C4.48254 -0.174441 3.28638 -0.174441 2.58861 0.523323L0.694681 2.41725C-1.19925 4.41087 0.894042 9.69394 5.57903 14.3789C10.264 19.0639 15.5471 21.2569 17.5407 19.2633L19.4346 17.3693C20.1324 16.5719 20.1324 15.3757 19.4346 14.678Z" fill="white"/>
</svg>
