<svg width="85" height="50" viewBox="0 0 85 50" fill="none" xmlns="http://www.w3.org/2000/svg">
<path d="M61.9684 47.9209L61.9684 40.843L83.2346 40.843C84.2064 40.843 85 40.0494 85 39.0776L85 10.7335C85 9.76167 84.2064 8.96803 83.2346 8.96803L61.9846 8.96803L61.9846 1.85772C61.9846 0.885919 61.191 0.0922841 60.2192 0.0922841L40.7346 0.0922832C27.6478 0.0922826 16.9094 10.2638 16.0024 23.1239L1.76555 23.1239C0.793746 23.1239 0.000121029 23.9175 0.000120986 24.8893C0.000120944 25.8611 0.793746 26.6547 1.76555 26.6547L16.0024 26.6547C16.9094 39.4987 27.664 49.6863 40.7346 49.6863L60.203 49.6863C61.1748 49.7025 61.9684 48.9089 61.9684 47.9209ZM81.4529 12.4989L81.4529 37.2959L61.9684 37.2959L61.9684 12.4989L81.4529 12.4989ZM40.7184 46.1555C28.9921 46.1555 19.4685 36.6157 19.4685 24.9055C19.4685 13.1953 28.9921 3.63934 40.7184 3.63934L58.4213 3.63934L58.4213 46.1555L40.7184 46.1555Z" fill="#F6C92E"/>
<path d="M38.9368 37.2961C33.2356 37.2961 28.3118 30.1695 28.3118 26.6711C28.3118 25.6993 27.5182 24.9056 26.5464 24.9056C25.5746 24.9056 24.7809 25.6993 24.7809 26.6711C24.7809 32.1455 31.2596 40.8431 38.953 40.8431C39.9248 40.8431 40.7184 40.0495 40.7184 39.0777C40.7184 38.0897 39.9248 37.2961 38.9368 37.2961Z" fill="#F6C92E"/>
<path d="M77.9222 19.577C77.9222 18.6052 77.1285 17.8115 76.1567 17.8115L67.2972 17.8115C66.3254 17.8115 65.5317 18.6052 65.5317 19.577C65.5317 20.5488 66.3254 21.3424 67.2972 21.3424L76.1405 21.3424C77.1285 21.3586 77.9222 20.5649 77.9222 19.577Z" fill="#F6C92E"/>
<path d="M77.9222 30.2018C77.9222 29.23 77.1285 28.4364 76.1567 28.4364L67.2972 28.4364C66.3254 28.4364 65.5317 29.23 65.5317 30.2018C65.5317 31.1736 66.3254 31.9673 67.2972 31.9673L76.1405 31.9673C77.1285 31.9835 77.9222 31.1898 77.9222 30.2018Z" fill="#F6C92E"/>
</svg>
