<svg width="62" height="37" viewBox="0 0 62 37" fill="none" xmlns="http://www.w3.org/2000/svg">
<path d="M44.9271 35.6176L44.9271 30.4862L60.3451 30.4862C61.0496 30.4862 61.625 29.9108 61.625 29.2062L61.625 8.65675C61.625 7.9522 61.0496 7.37681 60.3451 7.37681L44.9388 7.37681L44.9388 2.22183C44.9388 1.51728 44.3634 0.941894 43.6589 0.941894L29.5326 0.941893C20.0446 0.941893 12.2593 8.31621 11.6017 17.6398L1.28002 17.6398C0.575465 17.6398 8.6983e-05 18.2152 8.69522e-05 18.9197C8.69214e-05 19.6243 0.575465 20.1997 1.28002 20.1997L11.6017 20.1997C12.2593 29.5115 20.0564 36.8976 29.5326 36.8976L43.6472 36.8976C44.3517 36.9093 44.9271 36.3339 44.9271 35.6176ZM59.0534 9.93669L59.0534 27.9145L44.9271 27.9145L44.9271 9.93669L59.0534 9.93669ZM29.5209 34.3377C21.0193 34.3377 14.1146 27.4213 14.1146 18.9315C14.1146 10.4416 21.0193 3.51351 29.5209 3.51351L42.3555 3.51351L42.3555 34.3377L29.5209 34.3377Z" fill="#F6C92E"/>
<path d="M28.2298 27.9146C24.0964 27.9146 20.5267 22.7479 20.5267 20.2115C20.5267 19.5069 19.9513 18.9315 19.2468 18.9315C18.5422 18.9315 17.9668 19.5069 17.9668 20.2115C17.9668 24.1805 22.6638 30.4862 28.2415 30.4862C28.9461 30.4862 29.5215 29.9108 29.5215 29.2063C29.5215 28.49 28.9461 27.9146 28.2298 27.9146Z" fill="#F6C92E"/>
<path d="M56.4932 15.0683C56.4932 14.3638 55.9178 13.7884 55.2132 13.7884L48.79 13.7884C48.0855 13.7884 47.5101 14.3638 47.5101 15.0683C47.5101 15.7729 48.0855 16.3483 48.79 16.3483L55.2015 16.3483C55.9178 16.36 56.4932 15.7846 56.4932 15.0683Z" fill="#F6C92E"/>
<path d="M56.4932 22.7713C56.4932 22.0668 55.9178 21.4914 55.2132 21.4914L48.79 21.4914C48.0855 21.4914 47.5101 22.0668 47.5101 22.7713C47.5101 23.4759 48.0855 24.0513 48.79 24.0513L55.2015 24.0513C55.9178 24.063 56.4932 23.4876 56.4932 22.7713Z" fill="#F6C92E"/>
</svg>
