<svg width="57" height="57" viewBox="0 0 57 57" fill="none" xmlns="http://www.w3.org/2000/svg">
<g clip-path="url(#clip0_930_996)">
<path d="M55.4085 27.5888C55.5175 26.2494 54.522 25.0515 52.5291 24.1238C51.1585 23.4859 49.466 23.0574 48.4132 23.0819L39.9578 23.2782L29.5325 7.4969L22.4505 7.66131L28.1835 23.5515L20.7536 23.724L15.5745 18.9046L10.5179 19.022L12.7913 27.4108L9.58519 27.4853L9.395 29.8243L12.5968 29.7499L8.95347 38.2761L14.0089 38.1587L19.9928 33.0802L27.5474 32.9048L19.2055 49.1186L26.2874 48.9541L39.3208 32.6314L47.6526 32.4379C48.7054 32.4135 50.4742 31.9047 51.9539 31.2007C54.105 30.1772 55.2997 28.9281 55.4085 27.5888ZM25.8462 9.91716L28.1488 9.86371L37.0551 23.3456L30.7441 23.4921L25.8462 9.91716ZM25.284 46.6429L22.9815 46.6964L30.1079 32.8454L36.418 32.6989L25.284 46.6429ZM51.1238 29.109C49.8766 29.7026 48.4494 30.085 47.8426 30.0991L19.2907 30.762L13.3068 35.8405L12.4456 35.8605L15.0813 29.6925L17.9656 29.6255L18.1558 27.2865L15.2763 27.3533L13.6316 21.2845L14.4919 21.2645L19.671 26.0839L48.2229 25.4209C48.8299 25.4068 50.1999 25.7245 51.3553 26.2621C52.6668 26.8725 53.0768 27.4661 53.0624 27.6433C53.048 27.8203 52.5399 28.4352 51.1238 29.109Z" fill="#FCCA0B"/>
</g>
<defs>
<clipPath id="clip0_930_996">
<rect width="37.8597" height="42.0316" fill="white" transform="translate(30.5688) rotate(46.6593)"/>
</clipPath>
</defs>
</svg>
