<svg width="14" height="32" viewBox="0 0 14 32" fill="none" xmlns="http://www.w3.org/2000/svg">
<path d="M2.90991 27.4424C2.90991 26.8193 3.07275 26.2388 3.39844 25.7007C3.5542 25.4316 3.73828 25.1909 3.95068 24.9785C4.16309 24.7661 4.41797 24.5679 4.71533 24.3838C5.28174 24.0581 5.86938 23.8953 6.47827 23.8953C7.45532 23.8953 8.29077 24.2493 8.98462 24.9573C9.69263 25.6511 10.0466 26.4795 10.0466 27.4424C10.0466 28.4336 9.69971 29.2832 9.00586 29.9912C8.32617 30.6851 7.48364 31.032 6.47827 31.032C5.51538 31.032 4.67993 30.678 3.97192 29.97C3.26392 29.2478 2.90991 28.4053 2.90991 27.4424ZM11.0449 18.8826C10.96 19.095 10.8184 19.4631 10.6201 19.9871C10.4785 20.3694 10.3936 20.6101 10.3652 20.7092L9.19702 20.8791C8.57397 20.9641 8.09253 21.0066 7.75268 21.0066C6.98804 21.0066 6.20923 20.8791 5.41626 20.6243C4.62329 20.3694 3.93652 20.0083 3.35596 19.541C2.80371 19.0454 2.35767 18.4719 2.01782 17.8206C1.69214 17.155 1.5293 16.4966 1.5293 15.8452C1.5293 14.7266 1.72046 13.8132 2.10278 13.1052C2.49927 12.3831 3.17896 11.5264 4.14185 10.5352L6.26587 8.17749C6.78979 7.5686 7.17212 7.05884 7.41284 6.64819C7.66772 6.22339 7.79517 5.7207 7.79517 5.14014C7.79517 4.26221 7.48364 3.56128 6.86059 3.03735C6.23755 2.49927 5.45874 2.23022 4.52417 2.23022C2.73999 2.23022 1.46558 2.99487 0.700928 4.52417H0.127441L0 1.61426C0.608887 1.14697 1.43726 0.764648 2.48511 0.467285C3.53296 0.155762 4.47461 0 5.31006 0C6.65527 0 7.7456 0.120361 8.58105 0.361084C10.167 0.800049 11.3423 1.46558 12.1069 2.35767C13.0557 3.47632 13.53 4.72241 13.53 6.09595C13.53 7.3562 13.2256 8.48193 12.6167 9.47314C12.291 10.0112 11.9016 10.5493 11.4485 11.0874C11.0095 11.6113 10.4502 12.2131 9.77051 12.8928C9.10498 13.5583 8.60229 14.0681 8.26245 14.4221C7.83765 14.8611 7.51904 15.2151 7.30664 15.4841C6.88184 15.9939 6.66943 16.6028 6.66943 17.3108C6.66943 17.863 6.88184 18.3303 7.30664 18.7126C7.75976 19.0808 8.26953 19.2649 8.83594 19.2649C9.02002 19.2649 9.16162 19.2578 9.26074 19.2437C9.35986 19.2295 9.53686 19.1799 9.79175 19.095C10.1741 18.9675 10.4644 18.8259 10.6626 18.6702L11.0449 18.8826Z" fill="#939393"/>
</svg>
