<svg width="18" height="20" viewBox="0 0 18 20" fill="none" xmlns="http://www.w3.org/2000/svg">
<path d="M9 0C6.243 0 4 2.36105 4 5.26316C4 8.16526 6.243 10.5263 9 10.5263C11.757 10.5263 14 8.16526 14 5.26316C14 2.36105 11.757 0 9 0ZM9 8.42105C7.346 8.42105 6 7.00421 6 5.26316C6 3.52211 7.346 2.10526 9 2.10526C10.654 2.10526 12 3.52211 12 5.26316C12 7.00421 10.654 8.42105 9 8.42105ZM18 20V18.9474C18 14.8853 14.859 11.5789 11 11.5789H7C3.14 11.5789 0 14.8853 0 18.9474V20H2V18.9474C2 16.0453 4.243 13.6842 7 13.6842H11C13.757 13.6842 16 16.0453 16 18.9474V20H18Z" fill="white"/>
</svg>
