<?xml version="1.0" encoding="utf-8"?>
<svg xmlns="http://www.w3.org/2000/svg">
<symbol id="check-24" viewBox="0 0 26 26"><path d="M 22.566406 4.730469 L 20.773438 3.511719 C 20.277344 3.175781 19.597656 3.304688 19.265625 3.796875 L 10.476563 16.757813 L 6.4375 12.71875 C 6.015625 12.296875 5.328125 12.296875 4.90625 12.71875 L 3.371094 14.253906 C 2.949219 14.675781 2.949219 15.363281 3.371094 15.789063 L 9.582031 22 C 9.929688 22.347656 10.476563 22.613281 10.96875 22.613281 C 11.460938 22.613281 11.957031 22.304688 12.277344 21.839844 L 22.855469 6.234375 C 23.191406 5.742188 23.0625 5.066406 22.566406 4.730469 Z"/>
</symbol>
<symbol id="cross-16" viewBox="0 0 16 16">
<path d="M0.292893 0.292893C0.683418 -0.0976309 1.31658 -0.0976309 1.70711 0.292893L8 6.585L14.2929 0.292893C14.6534 -0.0675905 15.2206 -0.0953204 15.6129 0.209704L15.7071 0.292893C16.0976 0.683418 16.0976 1.31658 15.7071 1.70711L9.415 8L15.7071 14.2929C16.0676 14.6534 16.0953 15.2206 15.7903 15.6129L15.7071 15.7071C15.3166 16.0976 14.6834 16.0976 14.2929 15.7071L8 9.415L1.70711 15.7071C1.34662 16.0676 0.779392 16.0953 0.387101 15.7903L0.292893 15.7071C-0.0976309 15.3166 -0.0976309 14.6834 0.292893 14.2929L6.585 8L0.292893 1.70711C-0.0675905 1.34662 -0.0953204 0.779392 0.209704 0.387101L0.292893 0.292893Z"/>

</symbol></svg>